<svg width="109" height="56" viewBox="0 0 109 56" fill="none" xmlns="http://www.w3.org/2000/svg">
<path d="M6.75595 31.5904C6.59242 31.9174 6.42283 32.2445 6.27747 32.5897C4.93286 35.7635 4.25451 39.4278 4.41198 42.9589C4.58157 46.4597 5.7687 50.0393 8.88793 51.0386L9.29374 51.1901L9.73588 51.287C10.0266 51.3718 10.3416 51.396 10.6626 51.4263C11.0139 51.4687 11.2258 51.4747 11.4681 51.4444C11.7104 51.4202 11.9527 51.3657 12.1949 51.2688C13.1761 50.8993 14.1755 49.9424 14.9689 48.7795C16.5921 46.4294 17.6702 43.504 18.5545 40.7906C18.0034 42.4017 17.3916 43.9946 16.6709 45.5028C15.9562 47.0109 15.1203 48.4463 14.127 49.579C13.6304 50.1362 13.0913 50.6026 12.5583 50.8933C12.0132 51.184 11.5226 51.3233 10.9654 51.293C9.4815 51.2082 8.1369 50.8327 7.16781 49.9726C6.67116 49.5668 6.24113 49.0581 5.90195 48.4524C5.72024 48.1738 5.59305 47.8346 5.43558 47.5197C5.3205 47.1744 5.16908 46.8474 5.08428 46.4779C4.66637 45.0485 4.53917 43.4677 4.58157 41.8869C4.61791 40.3 4.84807 38.7071 5.19936 37.1626C5.55065 35.6181 6.04731 34.116 6.6651 32.7533C6.56214 34.0009 6.40466 35.4546 6.10788 37.1141C5.68996 39.1007 5.48403 41.1358 5.58094 43.0437C5.62939 43.9946 5.75053 44.9213 5.96251 45.7693C6.18056 46.6111 6.4834 47.3682 6.86497 47.986C6.7499 48.0587 6.52579 48.2101 6.41072 48.2828C7.05879 49.2277 7.85828 49.7849 8.80314 50.1665C9.05147 50.2452 9.2998 50.3239 9.56024 50.3845C9.83885 50.4148 10.0932 50.5056 10.39 50.5117L10.8261 50.542L11.0381 50.5602L11.1592 50.5541C11.244 50.5602 11.3228 50.548 11.4076 50.5299C11.4923 50.5299 11.5711 50.4996 11.6559 50.4754C12.3282 50.3058 13.2125 49.6092 13.9877 48.628C14.7691 47.6408 15.4716 46.4476 16.0834 45.1757C17.325 42.6258 18.2638 39.7973 19.027 36.8961C19.7841 33.9888 20.3534 30.9726 20.735 27.8776C20.5836 28.3015 20.523 28.0229 20.4503 27.9139C20.4564 27.8836 20.4624 27.8533 20.4624 27.8291C20.4564 27.8594 20.4503 27.8836 20.4503 27.9139C20.3897 27.817 20.3231 27.8594 20.1838 28.6165C20.3231 27.8533 20.3897 27.817 20.4503 27.9139C19.9476 30.9302 19.348 33.8738 18.609 36.7204C17.8641 39.5611 16.9919 42.3411 15.835 44.8547C15.2597 46.1024 14.6116 47.2895 13.8787 48.2646C13.5153 48.7431 13.1337 49.1732 12.7522 49.5063C12.3766 49.8273 12.0072 50.0453 11.7043 50.1483C11.5529 50.2028 11.4136 50.227 11.2804 50.2452C11.2137 50.2634 11.1411 50.2391 11.0744 50.2513C11.0563 50.2573 10.9775 50.2452 10.9048 50.2392L10.6989 50.221L10.287 50.1846C10.1538 50.1665 10.0327 50.1301 9.90547 50.1059C9.77828 50.0756 9.65109 50.0635 9.52995 50.0272L9.18472 49.906C8.26409 49.5971 7.60996 49.052 7.04668 48.2525C7.48882 48.8764 8.00365 49.3185 8.63355 49.6335C9.26345 49.9424 10.0266 50.1483 10.917 50.1665C11.0441 50.1846 11.0865 50.1725 11.135 50.1725C11.1834 50.1725 11.238 50.1786 11.2925 50.1604C11.3409 50.1483 11.3954 50.1483 11.4499 50.1362C11.5045 50.118 11.5529 50.0998 11.6135 50.0877C11.8376 50.0029 12.092 49.8818 12.3706 49.6759C12.9278 49.2519 13.5395 48.5675 14.0846 47.7559C15.1809 46.1084 16.0652 44.0612 16.8162 41.9595C17.5673 39.8457 18.1851 37.629 18.7241 35.3819C19.8083 30.8817 20.5896 26.2301 21.2377 21.518C21.5587 19.1619 21.8434 16.7816 22.0977 14.3831C22.2128 13.1838 22.334 11.9785 22.449 10.7732C22.5036 10.107 22.5641 9.44075 22.6247 8.77451C22.6247 8.71394 22.6731 8.53224 22.552 8.59886C22.5641 8.4959 22.4854 8.41716 22.3521 8.36265L22.2976 8.34448L22.2673 8.33842C22.2734 8.33236 22.1765 8.34448 22.1341 8.34448L21.4981 8.38082C21.0742 8.4111 20.6502 8.44139 20.2323 8.47167C18.5485 8.60492 16.8647 8.78057 15.193 8.99861C15.9441 8.21729 12.419 7.2906 19.1542 6.70309C19.136 6.56984 19.0996 6.29729 19.0875 6.16404C12.2979 6.34574 9.54207 4.77704 16.1742 3.37793C17.107 3.19017 18.0821 3.01452 19.0936 2.84493C19.6024 2.76619 20.1111 2.6814 20.632 2.60266C20.8925 2.56632 21.1529 2.52392 21.4194 2.48758C21.9039 2.40884 22.3945 2.34222 22.8851 2.2756C24.9868 1.97881 27.0946 1.73654 29.2387 1.50033L29.3416 1.48822C29.378 1.48216 29.3477 1.54273 29.3538 1.57301L29.3416 1.77894L29.3174 2.18474L29.269 3.00241C29.2387 3.54752 29.2023 4.09263 29.1721 4.64379C29.1115 5.74007 29.0267 6.86057 28.9358 7.98107C28.8632 8.79874 28.7905 9.62246 28.7178 10.4522C28.6572 11.0458 28.5967 11.6394 28.5361 12.2329C28.4089 13.4201 28.2757 14.6193 28.1485 15.8125C27.8759 18.1988 27.5973 20.5852 27.3247 22.9352C26.9008 26.3452 26.3981 29.7491 25.7076 33.153C25.0111 36.5508 24.1389 39.9426 22.8609 43.286C21.9645 45.5815 20.9651 47.9315 19.5055 50.2694C18.7726 51.4384 17.8883 52.6134 16.7012 53.7036C16.0834 54.2366 15.4111 54.7636 14.5813 55.1694C13.7576 55.5812 12.8127 55.878 11.8255 55.9749C11.5771 55.987 11.3349 55.9991 11.0865 55.9991C10.8322 56.0052 10.6868 55.9749 10.4809 55.9689C10.0932 55.9325 9.71771 55.9265 9.33008 55.8477C8.94245 55.775 8.54876 55.7024 8.16112 55.6115C7.77349 55.4904 7.3798 55.3692 6.99822 55.236C5.4598 54.6485 4.02435 53.6249 2.9947 52.3772C1.95293 51.1295 1.28063 49.7364 0.844546 48.3737C0.414515 47.0048 0.208585 45.6602 0.129847 44.358C-0.0397427 42.4623 -0.0700265 39.9305 0.202528 37.6653C0.450856 35.4001 0.989908 33.4074 1.45022 32.5897C2.02562 31.3905 2.34057 31.4511 2.57072 31.7418C1.6077 34.5097 1.05653 37.3625 0.893 40.2697C0.814262 41.7233 0.844546 43.1951 1.03231 44.673C1.22612 46.1448 1.5653 47.6347 2.20732 49.0702C2.60101 49.9484 3.09766 50.8085 3.73968 51.5959C4.40593 52.359 5.16908 53.0798 6.07759 53.5885C6.29564 53.7339 6.52579 53.8369 6.76201 53.9519C6.99822 54.0549 7.22838 54.1821 7.46459 54.2669C7.94914 54.4183 8.43368 54.6121 8.92428 54.6909L9.6632 54.8362L10.3961 54.9089C10.6565 54.9271 10.8564 54.9695 11.1592 54.9574C11.4499 54.9513 11.7467 54.9574 12.0314 54.9029C13.2004 54.7514 14.2785 54.2669 15.1506 53.6612C16.0349 53.0555 16.7496 52.3348 17.3735 51.5959C18.6212 50.112 19.5236 48.519 20.3231 46.92C19.5115 48.4706 18.609 50.0272 17.3856 51.4868C16.7738 52.2137 16.0713 52.9223 15.2112 53.528C14.3572 54.1337 13.3094 54.6303 12.1586 54.806C11.8739 54.8605 11.5832 54.8786 11.2925 54.8786C10.9836 54.8968 10.7534 54.8665 10.5111 54.8423L9.77828 54.7757C9.53601 54.7454 9.28768 54.6848 9.04541 54.6424C8.06421 54.4668 7.08907 54.0913 6.18056 53.5946C5.26599 53.0858 4.47861 52.3832 3.79419 51.6201C3.14006 50.8327 2.61918 49.9666 2.21338 49.0702C1.58347 47.6347 1.26852 46.1508 1.09287 44.6851C0.91117 43.2315 0.905113 41.7778 0.995965 40.3484C1.19584 37.4836 1.78334 34.6914 2.74637 32.0083C2.94624 32.299 3.16429 32.5655 3.52164 32.3293C3.52164 32.3293 3.66094 31.9235 3.84265 31.4208C4.03646 30.9181 4.27873 30.3245 4.46649 29.9369C5.52037 28.5135 6.28352 28.3197 6.58636 28.5499C6.91343 28.8042 6.9316 29.4644 6.89526 30.2518C6.8468 30.6516 6.80441 31.0937 6.75595 31.5904Z" fill="#FF5F00"/>
<path d="M65.7186 36.1876C65.1675 36.8236 64.5981 37.4353 64.0228 38.0228C62.8175 39.2765 61.5516 40.4576 60.2373 41.5721L59.886 41.8688L59.4923 42.1959C59.2258 42.4079 58.9654 42.6381 58.6989 42.8379C58.4324 43.0378 58.1659 43.2619 57.8994 43.4436C57.6329 43.6011 57.3603 43.7949 57.0938 43.9281C56.5608 44.1946 56.0581 44.3945 55.519 44.4793C54.9861 44.5702 54.4228 44.5581 53.8655 44.4006C53.4597 44.2552 53.0479 44.0796 52.7148 43.801C52.3816 43.5284 52.1151 43.2074 51.891 42.8561C51.4428 42.1596 51.1824 41.3116 51.0552 40.3728C50.928 39.434 50.9462 38.4104 51.037 37.405C51.0855 36.8296 51.1218 36.5692 51.1703 36.2179C51.2187 35.8848 51.2672 35.5516 51.3217 35.2246C51.776 32.5959 52.4362 30.0884 53.169 27.5749C54.659 22.5538 56.4276 17.5933 58.4929 12.4935L62.0301 13.6625C61.6485 15.0131 61.2366 16.3275 60.8006 17.666C58.9896 23.0565 56.9484 28.7923 54.2714 34.3524C52.9207 37.1264 51.4186 39.8641 49.3654 42.3413L48.9656 42.7955C48.8263 42.9469 48.7173 43.0863 48.5053 43.2801L47.942 43.8131C47.7543 43.9948 47.5726 44.1704 47.3424 44.3218C46.9063 44.6247 46.4945 45.0063 46.0341 45.2061L45.3558 45.5635C45.1256 45.6664 44.8955 45.7209 44.6653 45.7997C43.7507 46.1207 42.7877 46.1631 41.9155 45.7391C41.0555 45.2909 40.5467 44.4854 40.256 43.6193C40.4256 44.128 40.6557 44.6004 40.9889 45.0063C41.3159 45.4121 41.7702 45.7512 42.285 45.9208C42.7998 46.0904 43.3328 46.1086 43.8537 46.042C44.1142 46.0177 44.3807 45.939 44.6411 45.8542C44.9015 45.7633 45.168 45.721 45.4224 45.5877C45.9312 45.3091 46.4642 45.1032 46.9366 44.7034L47.6634 44.1704L48.2994 43.5769C48.7779 43.1529 49.0262 42.844 49.3351 42.5048C49.65 42.1717 49.8984 41.8204 50.183 41.4752C52.315 38.6709 53.8656 35.6485 55.2889 32.5959C56.6941 29.5312 57.9175 26.4059 59.038 23.2564C60.1585 20.0948 61.1761 16.9392 62.1028 13.6867L58.4081 12.4632C56.4336 17.3934 54.6408 22.3115 53.0903 27.3508C52.3271 29.8704 51.6185 32.4082 51.1218 35.0792L50.9522 36.0907L50.8796 36.6055L50.8432 36.866L50.8008 37.2657C50.6918 38.3317 50.6615 39.4219 50.7887 40.4273C50.9159 41.4328 51.1945 42.3352 51.673 43.062C51.9092 43.4315 52.1939 43.7707 52.5452 44.0553C52.8965 44.3461 53.3265 44.5399 53.7565 44.6974C54.338 44.873 54.9194 44.9033 55.4767 44.8306C56.0399 44.764 56.5729 44.5762 57.1362 44.3158C57.4148 44.1825 57.7055 43.9887 57.9902 43.8252C58.2749 43.6374 58.5595 43.4012 58.8442 43.1953C59.1289 42.9833 59.4075 42.7471 59.6861 42.523L60.1101 42.1777L60.4856 41.8628C61.8181 40.7544 63.09 39.5915 64.3014 38.3559C63.4898 39.4764 62.5267 40.6575 61.3759 41.8446L60.9338 42.2868L60.8066 42.414L60.6007 42.6078L60.1525 42.9893C59.565 43.5284 58.9411 44.0372 58.2991 44.552C56.9606 45.5029 55.725 45.8603 54.3319 45.7149C54.0351 45.6786 53.7384 45.5998 53.4416 45.5211C52.63 45.2364 51.8729 44.764 51.352 44.1522C50.8129 43.5466 50.4071 42.8258 50.1528 41.9597C49.8863 41.1057 49.7833 40.1063 49.7833 39.0948C49.7712 38.5921 49.8075 38.0652 49.8439 37.5504L49.9165 36.7751L49.965 36.3269C50.286 33.995 50.8008 31.8631 51.358 29.7553C52.4967 25.564 53.8595 21.5605 55.2949 17.5994C55.4221 17.6478 55.6765 17.7387 55.8037 17.7811C56.4397 15.9035 57.0999 14.0743 57.8146 12.2149L62.7448 13.8442C61.279 19.2892 59.5407 24.4556 57.4269 29.5615C56.3609 32.1053 55.2041 34.6128 53.8474 37.0719C53.1751 38.3014 52.424 39.5128 51.6003 40.7059L50.9644 41.5902L50.2678 42.4624C49.753 43.062 49.3775 43.5284 48.4811 44.3158C48.2752 44.4914 48.1116 44.6852 47.8815 44.8427L47.2031 45.3273C46.9729 45.4787 46.7549 45.6786 46.5187 45.7815L45.804 46.1268C45.3316 46.4054 44.847 46.4659 44.3685 46.6113C43.89 46.7506 43.4176 46.7506 42.9452 46.7203C42.0003 46.6598 41.0373 46.1389 40.4619 45.3939C39.8684 44.6671 39.5292 43.7404 39.3535 42.6986C39.2627 42.1777 39.2324 41.6266 39.2263 41.0694C39.2203 40.5182 39.2506 39.9186 39.299 39.428L39.3293 39.0585L39.3596 38.7859L39.4262 38.2408L39.5837 37.1688C39.8199 35.7576 40.1106 34.3887 40.4377 33.032C41.7581 27.6294 43.4479 22.3903 45.2104 17.0724C44.847 17.8598 44.9197 17.3389 44.8955 17.1391C44.9136 17.0845 44.9379 17.03 44.956 16.9755C44.9379 17.03 44.9197 17.0845 44.8955 17.1391C44.8773 16.9574 44.7865 17.03 44.2716 18.4594C44.7865 17.03 44.8773 16.9574 44.8955 17.1391C43.0239 22.4084 41.2917 27.6173 39.9713 33.0441C39.6443 34.4009 39.3535 35.7818 39.1234 37.2051C39.0689 37.5625 39.0144 37.9198 38.9659 38.2893C38.9174 38.683 38.8811 38.9374 38.8387 39.5612L38.8084 39.9731L38.7963 40.4273C38.7842 40.7302 38.7781 41.033 38.7903 41.3298C38.7963 41.6326 38.8084 41.9234 38.8448 42.208L38.8932 42.6381L38.972 43.0499C39.0689 43.6071 39.2445 44.1038 39.4504 44.5762C39.6806 45.0305 39.935 45.4544 40.2681 45.8179C40.6012 46.1813 41.0131 46.5023 41.4795 46.7264C41.9458 46.9505 42.4425 47.0716 42.9391 47.1261C43.1875 47.1322 43.4358 47.1625 43.6841 47.1261C43.8113 47.114 43.9324 47.1079 44.0596 47.0898L44.4412 46.9929L45.2044 46.7991C45.4588 46.7506 45.7071 46.575 45.9615 46.472L46.7186 46.1086C46.9608 45.9572 47.2031 45.7694 47.4454 45.6059L48.1661 45.091C48.3842 44.9093 48.578 44.7095 48.79 44.5217L49.4078 43.9524C49.5289 43.8494 49.5774 43.7828 49.644 43.7101L49.8378 43.4921C50.0922 43.2013 50.3708 42.9167 50.5888 42.6199L51.2854 41.7295L51.9213 40.8271C52.739 39.6218 53.4779 38.3983 54.1502 37.1627C55.4948 34.6916 56.6456 32.172 57.7055 29.6221C58.7594 27.0722 59.7224 24.498 60.6249 21.8936C61.5213 19.271 62.3571 16.6787 63.1385 13.929L57.433 12.0393C56.8152 13.5656 56.2216 15.0858 55.6341 16.6545C56.2095 15.104 56.791 13.5898 57.4148 12.0332L63.1627 13.935C62.3571 16.8181 61.491 19.5557 60.5462 22.3297C59.6013 25.0855 58.5838 27.8171 57.4512 30.5245C56.3125 33.2319 55.0708 35.909 53.5567 38.5376C52.8056 39.8519 51.9577 41.1541 50.9704 42.4261C50.7221 42.7471 50.4738 43.062 50.1891 43.3709L49.7712 43.8373L49.6682 43.9524C49.6319 43.9948 49.5592 44.0553 49.5107 44.1038L49.1716 44.443C48.7173 44.8548 48.3054 45.2909 47.7422 45.6483L46.9487 46.2115C46.6822 46.3932 46.3976 46.4902 46.125 46.6295C45.8464 46.7506 45.5738 46.9081 45.2952 47.005L44.4594 47.2109L44.0415 47.3139C43.9022 47.3321 43.7689 47.3381 43.6296 47.3502C43.3571 47.3866 43.0845 47.3442 42.818 47.332C41.7399 47.2351 40.6315 46.6416 39.9713 45.8057C39.2869 44.982 38.869 43.916 38.6873 42.6744C38.6025 42.0505 38.5662 41.4025 38.5783 40.7423C38.5904 40.076 38.6388 39.4098 38.6873 38.9313C39.0386 35.7818 39.7472 32.9412 40.5043 30.1066C42.067 24.4617 43.9324 19.0409 46.022 13.5595L51.6851 15.637C49.7045 21.3364 47.5423 26.8783 44.9682 32.4324C43.672 35.2003 42.285 37.9622 40.5891 40.6878C39.7351 42.0505 38.8024 43.4073 37.6152 44.7458C37.4699 44.9154 37.3124 45.0789 37.1489 45.2485C37.0641 45.3333 36.9914 45.4121 36.9066 45.4968L36.6038 45.7876C36.0708 46.2721 35.5014 46.7203 34.9018 47.0958C34.2961 47.4532 33.6662 47.7439 33.0181 47.9196C32.3701 48.0891 31.7159 48.1437 31.0558 48.1073C30.5773 48.0467 30.0927 47.9559 29.6324 47.7803C28.9843 47.538 28.2212 47.0716 27.5973 46.3509C26.9553 45.6483 26.4829 44.655 26.2043 43.5587C26.0589 43.0136 25.9741 42.4442 25.9196 41.881C25.8833 41.5963 25.8712 41.3116 25.8651 41.1663C25.853 40.9846 25.853 40.815 25.8469 40.6514C25.8348 39.9852 25.859 39.4098 25.8893 38.9555C26.1074 37.1506 26.4587 35.479 26.8463 33.8376C27.2339 32.1962 27.67 30.5972 28.1303 29.0103C29.0449 25.8426 30.0443 22.7355 31.086 19.6466C31.1466 20.5248 32.0248 19.5315 32.3277 19.8525C32.4791 20.01 32.4912 20.4945 32.1944 21.6998C31.9098 22.9112 31.3041 24.8312 30.3713 27.9262C30.5046 27.9625 30.765 28.0352 30.8983 28.0715C32.9697 21.9663 35.1501 18.0415 36.1374 17.1633C37.1731 16.279 36.9429 18.2959 35.2652 24.389C34.3749 27.6536 33.424 31.1908 32.7274 34.843C32.3882 36.654 32.1096 38.5376 32.0915 40.2214C32.0854 40.609 32.1157 41.1723 32.1096 41.0391C32.1096 41.0633 32.1157 41.0936 32.1217 41.1178C32.1339 41.1723 32.1823 41.2208 32.2368 41.2208C32.2974 41.2208 32.358 41.1905 32.4125 41.142C32.685 40.8876 33.0242 40.5242 33.3331 40.1548C33.6481 39.7793 33.957 39.3795 34.2598 38.9495C35.4833 37.2415 36.6038 35.2851 37.6516 33.2743C39.7412 29.2405 41.5582 24.9523 43.1572 20.7065C44.0536 18.3504 44.9258 15.9338 45.7192 13.5837L51.8608 15.8369C50.1043 20.5248 48.4508 25.3702 47.0456 30.1611C46.3491 32.5596 45.701 34.9641 45.2468 37.302C45.1377 37.8835 45.0287 38.4649 44.956 39.0222L44.8652 39.6945C44.8531 39.8035 44.8531 39.7611 44.847 39.7853C44.8288 39.8217 44.7925 39.8883 44.8167 39.967C44.8591 40.0518 44.956 40.0397 45.053 39.9912C45.0711 39.9852 45.1741 39.8943 45.2347 39.8459L45.8282 39.2099C46.2522 38.7133 46.6701 38.1863 47.0699 37.617C48.6749 35.3275 50.068 32.6444 51.3156 29.8764C53.805 24.3284 55.8703 18.3322 57.5784 12.4693L62.7448 14.1773C60.6188 19.4225 58.6443 24.7706 57.0332 29.9491C56.5063 31.7359 55.9491 33.9587 55.6281 36.1937C55.5917 36.4723 55.5493 36.7509 55.5251 37.0295L55.4888 37.3687L55.4827 37.5019C55.4767 37.6776 55.4766 37.8532 55.4888 38.0228C55.5069 38.1924 55.5312 38.3559 55.5978 38.5013C55.6644 38.6466 55.7855 38.7738 55.9491 38.7981C56.1671 38.8283 56.3609 38.7133 56.5063 38.6042C56.6577 38.4892 56.8031 38.3801 56.9363 38.2832L57.0393 38.2106C57.0756 38.1863 57.0878 38.1742 57.2149 38.0713C57.4148 37.9077 57.6026 37.7563 57.7782 37.6109C58.1295 37.3263 58.4324 37.084 58.6867 36.8962C60.3947 35.4971 60.637 35.594 60.6431 36.0725C60.1343 36.6055 59.6134 37.1203 59.0804 37.623C58.8139 37.8774 58.5414 38.1258 58.2749 38.3741L57.5602 39.004C57.2331 39.2826 56.906 39.5491 56.5729 39.8095C56.2519 40.07 55.8401 40.288 55.4221 40.2153C55.1556 40.1669 54.9376 39.9791 54.8104 39.749C54.6772 39.5188 54.6226 39.2523 54.5863 38.9919C54.5197 38.4649 54.5439 37.938 54.5924 37.4171L54.6529 36.872L54.7438 36.2118C54.8104 35.7697 54.8891 35.3275 54.9739 34.8793C55.1435 33.989 55.3373 33.0986 55.5554 32.2083C56.4276 28.6469 57.5541 25.1279 58.7594 21.6514C59.6982 19.0106 60.7036 16.3638 61.7575 13.7897L58.6141 12.7479C57.2573 17.4298 55.6402 22.1238 53.7929 26.6421C52.8662 28.9013 51.8547 31.1241 50.7524 33.2622C49.6379 35.382 48.4205 37.4595 47.0032 39.2099C48.4145 37.508 49.6319 35.4608 50.7524 33.3651C51.8608 31.2513 52.8722 29.0406 53.811 26.7814C55.6705 22.2631 57.2937 17.5267 58.6565 12.76L61.7151 13.7715C60.6794 16.3396 59.6861 18.9924 58.7594 21.6514C57.5238 25.1461 56.367 28.6772 55.4645 32.2325C55.2404 33.1229 55.0345 34.0132 54.8589 34.8975C54.768 35.3396 54.6893 35.7878 54.6226 36.23L54.5257 36.8902L54.4591 37.4292C54.3985 37.9865 54.3622 38.5558 54.4288 39.1251C54.4652 39.4098 54.5257 39.7005 54.665 39.9549C54.7983 40.2153 55.0345 40.4213 55.3192 40.4758C55.7674 40.5666 56.2035 40.3486 56.5487 40.0821C56.906 39.8156 57.2634 39.537 57.6147 39.2402L57.8872 39.01L58.287 38.6648L59.0744 37.9562C59.5953 37.4777 60.1101 36.9871 60.6067 36.4844C60.5522 36.9447 60.4977 37.405 61.1337 37.1446C61.1337 37.1446 61.6909 36.5752 62.3571 35.8302C63.0173 35.0853 63.7865 34.1707 64.259 33.5287C65.3613 32.3658 66.1063 31.536 66.6453 31.0333C67.1723 30.5245 67.5054 30.3549 67.6871 30.4579C68.0384 30.6457 67.7961 31.96 67.1056 33.559C66.7422 34.3645 66.294 35.2488 65.7186 36.1876Z" fill="#FF5F00"/>
<path d="M88.9706 26.9872C88.7707 27.2537 88.5709 27.5142 88.371 27.7746C86.5721 30.2034 84.6461 32.4626 82.5383 34.6551C81.4784 35.7453 80.37 36.8174 79.1768 37.841C77.9836 38.8706 76.7238 39.87 75.2944 40.7846C75.0279 40.942 74.7856 41.1056 74.501 41.263C74.2103 41.4205 73.9983 41.5719 73.5501 41.7718C72.7869 42.2018 71.9087 42.4138 71.0365 42.3714C69.2861 42.3169 67.6084 41.1782 66.9421 39.5126L66.5363 38.483C66.4091 38.1862 66.3425 37.8713 66.2395 37.5684C66.0336 36.9567 65.9125 36.3328 65.7732 35.715C65.5551 34.4734 65.4158 33.2318 65.4522 32.0446C65.3916 33.2802 65.5067 34.534 65.7005 35.7817C65.8216 36.3995 65.9367 37.0294 66.1245 37.635C66.2153 37.9379 66.2819 38.2528 66.4031 38.5496L66.7968 39.5914C67.3843 41.0874 68.7652 42.2018 70.3339 42.4865C71.1152 42.6258 71.939 42.5895 72.7082 42.323C73.0958 42.2079 73.4471 41.9838 73.8166 41.8203C74.0225 41.7234 74.1255 41.6446 74.2587 41.5719L74.6403 41.3418C76.5845 40.1123 78.2622 38.7495 79.9036 37.3261C83.1561 34.4734 86.0936 31.3602 88.7162 28.0229C88.3952 29.1132 87.8501 30.3427 86.9234 31.548C84.5855 34.3644 82.0659 36.884 79.3585 39.1856C79.2677 39.0826 79.092 38.8767 79.0012 38.7798C78.2804 39.4521 77.5415 40.1062 76.7541 40.7179C76.3604 41.0268 75.9607 41.3236 75.5306 41.6143C75.3247 41.7597 75.1127 41.9051 74.8765 42.0444L74.5313 42.2564L74.3435 42.3714C74.2587 42.4199 74.1618 42.4623 74.077 42.5047C72.6779 43.3466 70.9699 43.5343 69.4799 43.0256C67.9839 42.541 66.7483 41.3781 66.1548 39.9184L65.6702 38.5799L65.3492 37.417C65.2341 37.0354 65.1857 36.6357 65.1009 36.242C65.0161 35.8483 64.9616 35.4546 64.9252 35.0609C64.7375 33.4801 64.7314 31.8932 64.8949 30.3427C65.2099 27.2295 66.0457 24.2435 67.1662 21.3302C66.9482 21.6331 66.9361 21.3908 66.8876 21.2818L66.9179 21.2151L66.8876 21.2818C66.8452 21.1849 66.7725 21.197 66.506 21.7905C66.7725 21.197 66.8452 21.1849 66.8876 21.2818C65.6157 24.1406 64.7375 27.175 64.4467 30.3366C64.2953 31.9114 64.3317 33.5285 64.5497 35.1275C64.5921 35.5273 64.6587 35.927 64.7496 36.3268C64.8404 36.7205 64.8949 37.1263 65.0221 37.5139L65.3613 38.6889L65.8761 40.0638C66.5 41.5356 67.7295 42.7106 69.2255 43.2436C70.7094 43.7766 72.4417 43.7281 73.8953 42.9347L74.4525 42.6682L74.828 42.4502C75.0521 42.3169 75.2944 42.1776 75.5003 42.0444C75.9183 41.7718 76.3422 41.4932 76.7359 41.2085C77.5415 40.6453 78.2925 40.0577 79.0436 39.446C78.3107 40.0517 77.5718 40.6453 76.7783 41.2146C76.3968 41.5053 75.9728 41.7839 75.5609 42.0625C75.361 42.2018 75.1188 42.3412 74.8947 42.4805L74.5373 42.6985L73.9801 42.9711C72.5204 43.7948 70.7579 43.8796 69.2377 43.3526C67.7053 42.8257 66.4273 41.6325 65.7732 40.1304L65.2523 38.7798C65.1251 38.4043 65.0221 38.0166 64.9071 37.635C64.7859 37.2535 64.7132 36.8658 64.6284 36.4721C64.5437 36.0845 64.4589 35.6969 64.4165 35.3032C64.1681 33.7345 64.1318 32.1537 64.2408 30.6092C64.4528 27.5081 65.2947 24.5645 66.4515 21.8087C67.6326 19.0589 69.1529 16.4969 70.9759 14.1105C71.8966 12.9174 72.8899 11.7726 74.0104 10.6885C74.5797 10.1494 75.1612 9.61037 75.8274 9.1016C76.0576 8.89567 76.7299 8.46564 77.2629 8.10829C77.8383 7.7994 78.4137 7.4481 79.0193 7.27851C79.3888 7.13315 79.7643 7.06047 80.1398 6.96962C80.4003 6.93328 80.6789 6.93328 80.9454 6.91511C81.2119 6.89694 81.4784 6.93933 81.7509 6.95145C82.2779 7.0423 82.7988 7.16949 83.2833 7.40571C85.1972 8.55044 85.9604 10.7733 85.9604 13.0385C85.9664 13.3232 85.9664 13.6018 85.9483 13.8804L85.9301 14.2862L85.9059 14.5648C85.8695 14.9403 85.8211 15.2977 85.7726 15.655C85.6697 16.3697 85.5485 17.0541 85.4092 17.7386C85.1427 17.3327 84.5431 17.7386 84.1736 17.575C83.9859 17.4963 83.8647 17.2782 83.8587 16.7695C83.8405 16.2486 83.9617 15.4673 84.0889 14.1166C83.9556 14.1105 83.683 14.1045 83.5437 14.1045C83.3257 15.3885 82.8896 16.4 82.4596 17.1268C82.0235 17.8476 81.5753 18.3018 81.2179 18.3987C80.8485 18.5502 80.582 18.3503 80.4184 17.9263C80.2549 17.4721 80.2307 16.6786 80.2549 15.5702C80.261 15.3037 80.267 15.0372 80.2731 14.7707C80.2731 14.5224 80.2731 14.2075 80.261 14.0318C80.2246 13.947 80.2004 13.9288 80.1762 13.8925C80.1338 13.8259 80.0611 13.7895 79.9824 13.8077C79.9581 13.8138 79.9339 13.8198 79.9097 13.8319L79.8733 13.8501C79.8673 13.8562 79.8794 13.8441 79.8491 13.8622L79.734 13.9531L79.4918 14.1348C78.8497 14.6375 78.1956 15.2371 77.5718 15.8852C76.3241 17.1874 75.1975 18.6774 74.2951 20.2339C71.945 24.183 70.4672 28.5499 70.3218 32.7169C70.3097 33.5346 70.3279 34.3704 70.4793 35.1881L70.5823 35.8059L70.7397 36.4116C70.7882 36.6175 70.8366 36.8234 70.9154 37.0172L71.0183 37.314C71.0305 37.3504 71.0244 37.3564 71.0305 37.3807C71.0486 37.5442 71.2 37.7017 71.3939 37.7138C71.4423 37.7198 71.4908 37.7138 71.5392 37.7017L71.6119 37.6774L71.6482 37.6653L71.7876 37.5866C72.2358 37.3383 72.7263 37.0172 73.2109 36.6841C75.1612 35.3395 77.0448 33.7345 78.8376 32.1779C79.7219 31.3481 80.8061 30.0701 81.7146 28.8709C82.6413 27.6777 83.4165 26.5814 83.9253 26.1999C84.5855 25.6063 84.8338 25.7214 85.0337 26.0121C82.7624 29.3312 80.0611 32.3899 77.0812 35.0367C75.6094 36.2844 74.0407 37.5139 72.478 38.4103L72.1994 38.5678C72.1328 38.6041 72.0843 38.6162 72.0298 38.6465C71.9208 38.695 71.8178 38.7374 71.7028 38.7616C71.4787 38.81 71.2424 38.804 71.0305 38.7313C70.6004 38.6041 70.2734 38.2407 70.1886 37.8289L70.1462 37.6653L70.0432 37.3443C69.9645 37.1323 69.916 36.9143 69.8676 36.6962L69.7101 36.0482C69.6677 35.8301 69.6435 35.606 69.6071 35.388C69.6374 35.606 69.6556 35.8301 69.698 36.0482L69.8373 36.7023C69.8857 36.9203 69.9281 37.1444 70.0008 37.3564L70.1038 37.6774L70.1462 37.847C70.2249 38.271 70.558 38.6526 71.0002 38.7919C71.2182 38.8646 71.4665 38.8827 71.6967 38.8282C71.8178 38.804 71.9269 38.7616 72.0359 38.7071L72.2055 38.6283L72.478 38.4709C73.2533 38.0287 74.0528 37.4776 74.8159 36.8901C75.5912 36.3086 76.3422 35.6787 77.0812 35.0246C80.0974 32.4323 82.8412 29.4766 85.1791 26.2544C85.3305 26.5269 85.488 26.8055 85.8514 26.751C85.8514 26.751 86.5237 25.6911 86.8568 25.1581C88.6859 23.3168 89.2492 24.2556 89.1765 25.7638C89.116 26.1272 89.0675 26.5451 88.9706 26.9872Z" fill="#FF5F00"/>
<path d="M90.2968 22.9413C90.5209 22.9535 90.7873 22.9292 91.0538 22.8868C92.3318 22.6567 93.7794 21.9056 95.1058 20.9971C96.4444 20.0704 97.7163 18.956 98.8852 17.7265C100.054 16.4909 101.138 15.1342 102.017 13.6866C102.235 13.3293 102.435 12.9598 102.616 12.5964C102.707 12.4147 102.786 12.233 102.871 12.0513L102.98 11.7787L103.064 11.5486C103.216 11.1306 103.325 10.6885 103.167 10.2403C103.064 9.9314 102.792 9.68913 102.471 9.58617C102.313 9.5256 102.138 9.49532 101.962 9.47109L101.696 9.45292L101.326 9.46503C100.236 9.53771 99.0912 10.0101 98.0434 10.743C95.9295 12.2209 94.2336 14.5164 92.9133 16.7513C93.7249 15.431 94.6394 14.1772 95.657 13.0628C96.6745 11.9544 97.8132 10.9792 99.0245 10.3554C99.6302 10.0465 100.242 9.82238 100.854 9.71336C101.005 9.68308 101.157 9.67702 101.308 9.65279L101.702 9.64068C101.883 9.64674 102.071 9.66491 102.247 9.7073C102.598 9.77998 102.943 9.98592 103.07 10.3312C103.204 10.6703 103.143 11.0458 103.046 11.3729C103.016 11.488 102.883 11.8453 102.756 12.1482C102.622 12.4631 102.459 12.7781 102.289 13.093C101.938 13.7229 101.526 14.3468 101.078 14.9585C100.181 16.1699 99.1457 17.3085 98.0373 18.3382C96.9289 19.3618 95.7418 20.2885 94.5244 21.0335C93.3191 21.7663 92.029 22.3417 90.9691 22.4992C91.708 21.9662 92.6407 21.2454 93.8702 20.4036C95.3844 19.4405 96.8502 18.1989 98.1463 16.8422C99.4364 15.4855 100.605 13.9834 101.393 12.5055C101.514 12.5661 101.756 12.6872 101.877 12.7478C102.004 12.4692 102.12 12.1906 102.216 11.9241C102.313 11.6576 102.398 11.3669 102.41 11.3002C102.441 11.1367 102.453 10.9732 102.41 10.8217C102.368 10.6703 102.253 10.5431 102.107 10.4826C101.95 10.422 101.835 10.3978 101.617 10.4038C100.823 10.4099 99.8119 10.7127 98.8731 11.276C97.9222 11.8453 96.9834 12.6327 96.1294 13.5594C94.4093 15.4128 92.9738 17.7083 91.8473 20.1673C90.7268 22.6264 89.9031 25.2914 89.5578 27.9927C89.6971 27.6293 89.7698 27.8776 89.8364 27.9685C89.8304 27.9927 89.8304 28.0169 89.8243 28.0411C89.8304 28.0169 89.8304 27.9927 89.8364 27.9685C89.9031 28.0533 89.9636 28.023 90.0969 27.3688C89.9576 28.023 89.897 28.0533 89.8364 27.9685C90.3089 25.3641 91.1508 22.796 92.2349 20.4036C93.3191 18.0172 94.6697 15.758 96.2869 13.9228C97.0924 13.0204 97.9707 12.2087 98.8731 11.6394C99.7695 11.064 100.684 10.737 101.471 10.7006C101.538 10.7067 101.671 10.6885 101.683 10.6946L101.75 10.7067C101.792 10.7188 101.841 10.7309 101.877 10.7491C101.956 10.7854 102.017 10.852 102.035 10.9368C102.053 11.0216 102.029 11.1064 101.998 11.173L101.974 11.2215C101.974 11.2154 101.95 11.2881 101.938 11.3184C101.92 11.3669 101.92 11.385 101.889 11.4517C101.792 11.6818 101.69 11.9241 101.562 12.1785C101.647 12.0089 101.714 11.8453 101.786 11.6818L101.877 11.4456L101.938 11.2699L101.98 11.167C101.986 11.1428 101.992 11.1246 101.998 11.1004C102.023 11.0095 101.992 10.8944 101.908 10.8399C101.865 10.8096 101.817 10.7975 101.768 10.7854C101.702 10.7733 101.738 10.7733 101.447 10.7854C100.92 10.8339 100.345 10.9913 99.7514 11.2821C98.5642 11.8635 97.3589 12.9113 96.299 14.1651C95.233 15.4188 94.2882 16.8725 93.4584 18.4048C91.817 21.4756 90.5935 24.9037 89.9818 28.3137C89.679 30.0035 89.5518 31.7297 89.7274 33.1652C89.8122 33.8678 90.006 34.4855 90.1817 34.746C90.2301 34.8368 90.2362 34.8126 90.2422 34.8429C90.2604 34.855 90.2725 34.8732 90.2907 34.8792C90.327 34.8974 90.3634 34.9216 90.4058 34.9277L90.4906 34.9337L90.6238 34.9459C90.7147 34.958 90.8055 34.9701 90.9024 34.964C91.0902 34.964 91.2779 34.9701 91.4778 34.9398C91.8655 34.9156 92.2894 34.7944 92.7195 34.6672C93.5856 34.3765 94.5001 33.8678 95.4026 33.2439C95.9417 32.8805 97.0016 32.0083 97.5164 31.5177C99.8543 29.8885 101.877 27.5808 103.537 25.1036C103.616 25.6063 104.348 25.4186 104.627 25.7093C104.766 25.8547 104.785 26.1333 104.53 26.6784C104.276 27.2235 103.749 28.0472 102.731 29.2222C102.84 29.307 103.052 29.4766 103.161 29.5614C105.372 27.3022 107.038 25.788 107.916 25.5397C108.758 25.3035 108.824 26.6178 107.129 29.4948C105.632 31.9296 103.628 34.5037 100.902 36.8719C99.5212 38.0409 97.9586 39.1735 96.0386 40.0275C94.1307 40.8815 91.8109 41.4205 89.2792 41.0026C88.2677 40.8209 87.2926 40.4091 86.4931 39.761C85.6936 39.1493 85.0152 38.2286 84.6397 37.4897C83.8523 35.9452 83.6343 34.5582 83.4768 33.2621C83.2951 31.3118 83.4344 29.5129 83.6828 27.7686C83.9371 26.0242 84.3369 24.3405 84.8396 22.6991C85.8571 19.4224 87.2805 16.291 89.255 13.408C90.6299 11.4395 92.2167 9.4832 94.3306 7.78731C95.3905 6.94542 96.6079 6.17621 98.0191 5.6311C98.7217 5.35854 99.4909 5.15867 100.272 5.03754C100.472 5.01331 100.666 4.98302 100.872 4.96485L101.52 4.93457C101.986 4.93457 102.556 4.94668 103.046 5.04359C104.076 5.17078 105.039 5.53419 105.838 6.10958C106.638 6.68498 107.25 7.5087 107.571 8.42933C107.904 9.34995 107.952 10.3675 107.807 11.3669C107.758 11.6152 107.716 11.8635 107.662 12.1118C107.601 12.3481 107.528 12.6327 107.462 12.8205C107.328 13.2384 107.201 13.5594 107.062 13.8744C106.505 15.1463 105.826 16.2183 105.106 17.2177C104.379 18.211 103.603 19.1195 102.786 19.9614C101.623 21.2091 100.024 22.905 98.3341 24.2496C97.4861 24.9219 96.6261 25.5155 95.8387 25.9516C95.0513 26.3876 94.3487 26.6663 93.8702 26.751C93.2101 26.9267 92.8285 26.9146 92.6347 26.8298C92.4469 26.745 92.4408 26.5875 92.4832 26.4058C93.9066 25.9576 95.1543 25.2793 96.3172 24.5222C97.474 23.759 98.5461 22.9111 99.5515 22.0025C101.556 20.1734 103.337 18.1504 104.803 15.8186C105.257 15.1039 105.681 14.3589 106.038 13.5352C106.22 13.1233 106.377 12.7236 106.535 12.1542C106.686 11.591 106.795 11.0156 106.801 10.4341C106.838 9.28939 106.468 8.12043 105.645 7.32094C104.827 6.51539 103.682 6.10958 102.495 5.98845C102.198 5.95816 101.889 5.93999 101.599 5.93999C101.338 5.94605 101.072 5.95211 100.823 5.97633C100.327 6.02479 99.8422 6.10353 99.3698 6.22466C98.4249 6.46693 97.5406 6.84245 96.729 7.29065C95.1058 8.19917 93.7612 9.37418 92.5741 10.6279C93.7552 9.41658 95.0876 8.27791 96.6806 7.38151C97.4801 6.93936 98.3462 6.56384 99.2789 6.31551C99.7392 6.18832 100.224 6.10353 100.714 6.05507C101.199 6.00662 101.726 5.9945 102.344 6.04296C103.519 6.14592 104.669 6.49722 105.511 7.27248C106.365 8.04169 106.765 9.19854 106.759 10.3372C106.765 10.9126 106.656 11.4941 106.517 12.0634C106.365 12.657 106.202 13.0567 106.026 13.4807C105.669 14.3165 105.251 15.0797 104.797 15.8125C103.307 18.1202 101.508 20.1007 99.5091 21.8693C97.4861 23.6076 95.2875 25.2005 92.568 26.0909C92.6831 25.7577 92.7497 25.4307 92.356 25.2793C92.356 25.2793 91.9745 25.4186 91.4718 25.5336C90.9751 25.6548 90.3513 25.7275 89.9273 25.7153C89.0793 25.5276 88.6009 25.146 88.3949 24.8311C88.1829 24.5161 88.2072 24.2738 88.3162 24.1042C88.4252 23.9347 88.6311 23.8135 88.8431 23.7106C89.0672 23.5894 89.2913 23.4925 89.5215 23.3532C89.7759 23.2684 90.0181 23.1291 90.2968 22.9413Z" fill="#FF5F00"/>
<path d="M62.1268 7.07873C63.2407 7.07873 64.1437 6.17573 64.1437 5.06183C64.1437 3.94792 63.2407 3.04492 62.1268 3.04492C61.0129 3.04492 60.1099 3.94792 60.1099 5.06183C60.1099 6.17573 61.0129 7.07873 62.1268 7.07873Z" fill="#FF5F00"/>
<path d="M66.4999 5.90367C66.4514 6.01875 66.3909 6.12777 66.3364 6.23074C65.8458 7.21799 65.1492 8.00537 64.2468 8.50808C63.3504 9.01079 62.2178 9.16221 61.2245 8.77458C60.54 8.47174 59.898 8.04777 59.4014 7.48449C58.8987 6.92726 58.5534 6.21257 58.4747 5.50392C58.505 6.35187 58.8805 7.20588 59.4983 7.84184C60.104 8.48385 60.9701 8.91388 61.8846 9.02896C63.7259 9.2894 65.7307 8.26581 66.7422 6.35187C66.936 6.84247 66.9602 7.4966 66.5847 8.05382C65.5974 9.30152 64.1196 10.0465 62.6357 10.1252C62.6236 9.98593 62.5933 9.71943 62.5812 9.58619C61.6666 9.78 60.6612 9.58619 59.8738 9.09559C59.0804 8.60499 58.4868 7.86606 58.1537 7.03629C57.4935 5.3525 57.8024 3.55364 58.8078 1.96677C58.6564 2.01522 58.6261 1.88198 58.5837 1.80324L58.6019 1.78507L58.5837 1.80324C58.5474 1.73056 58.4868 1.70027 58.3233 1.89409C58.4929 1.70027 58.5474 1.73661 58.5837 1.80324C57.9477 2.53611 57.5419 3.45068 57.4148 4.38948C57.2815 5.31616 57.4147 6.27919 57.8024 7.14531C58.184 8.01143 58.8199 8.75641 59.6315 9.29546C60.4431 9.83451 61.4425 10.1434 62.4661 10.1374C60.8732 10.1919 59.2984 9.46505 58.3293 8.27792C57.336 7.0908 56.9242 5.4373 57.2754 3.92916C57.6086 2.3968 58.6867 1.06431 60.1524 0.422294C61.6182 -0.22578 63.3988 -0.134928 64.804 0.743303C65.0463 0.882609 65.4884 1.22784 65.6822 1.42772C66.1789 2.49977 66.4878 3.45068 66.6271 4.45005C66.2758 4.38342 65.7913 4.62569 65.3976 4.64386C64.9918 4.66203 64.7616 4.55907 64.6647 3.95945C64.5375 4.01396 64.2892 4.12298 64.168 4.17749C64.0469 4.79528 63.3564 5.06784 62.7387 5.07389C62.5812 5.09206 62.4237 5.10418 62.2723 5.09206C62.2117 5.09206 62.0966 5.07389 62.0785 5.07389H62.0845C62.1027 5.07389 62.133 5.06784 62.133 5.06784C62.133 5.06178 62.0906 5.10418 62.1209 5.06784C62.1269 5.05572 62.1209 5.04967 62.1209 5.11023C62.1209 5.06784 62.1087 5.04361 62.1209 5.06784C62.133 5.08601 62.1451 5.09206 62.1148 5.07389C62.1027 5.06784 62.0966 5.06784 62.1209 5.07389C62.1148 5.07389 62.1754 5.07995 62.1572 5.07389C62.133 5.07389 62.1209 5.07389 62.1148 5.07995C62.0906 5.08601 62.1209 5.07389 62.1269 5.06784C62.133 5.06178 62.1269 5.06784 62.1209 5.07995C62.1148 5.09812 62.1209 5.07995 62.1209 5.03755C62.1209 5.09812 62.1269 5.09206 62.1209 5.07995C62.0966 5.04967 62.1269 5.07995 62.133 5.07995C62.2662 5.12235 62.4661 5.18291 62.6841 5.24954C62.5812 5.43124 62.3874 5.55843 62.2117 5.52815C62.0966 5.46758 62.0179 5.37067 62.03 5.26165C62.03 5.20714 62.0482 5.15869 62.0845 5.11023C62.139 5.04967 62.1269 5.06784 62.1209 5.07389C62.1209 5.07389 62.133 5.06784 62.1269 5.06784C62.0966 5.09206 62.0663 5.11629 62.0482 5.14657C62.0118 5.20109 61.9937 5.26165 61.9997 5.31616C62.0058 5.43124 62.1027 5.50392 62.2117 5.52209C62.3874 5.61295 62.6963 5.57055 62.9264 5.32828C63.1869 5.41913 63.4534 5.54026 63.7198 5.58872C63.7198 5.58872 63.7744 5.41307 63.7804 5.31616C64.1438 5.18291 64.5496 5.06178 64.9615 5.06178C65.3673 5.05572 65.7792 5.18897 66.1002 5.44336C66.2395 5.57055 66.3727 5.72197 66.4999 5.90367Z" fill="#FF5F00"/>
</svg>
